<svg xmlns="http://www.w3.org/2000/svg" width="1440" height="1053" fill="none" viewBox="0 0 1440 1053">
  <path fill="#293241" d="M0 119h1440v775H0z"/>
  <path fill="#293241" d="m0 950.75 48-4.337c48-4.665 144-12.849 240-4.42 96 8.757 192 34.944 288 30.607 96-4.665 192-39.036 288-26.187 96 13.339 192 73.897 288 95.997 96 22.09 192 4.09 240-4.34l48-8.76V846H0v104.75Zm-51-845.903L.4 91.771c51.4-13.077 154.2-39.23 257-61.051C360.2 9.226 463-8.755 565.8 4.567c102.8 12.831 205.6 56.964 308.4 69.796 102.8 13.321 205.6-4.659 308.4 0 102.8 4.331 205.6 30.484 257 43.561L1491 131H-51v-26.153Z"/>
</svg>
