<svg width="15" height="25" viewBox="0 0 15 25" fill="none" xmlns="http://www.w3.org/2000/svg">
<path d="M1.28223 14.1046C0.574076 13.3964 0.574075 12.2483 1.28223 11.5401L11.5401 1.28223C12.2482 0.574077 13.3964 0.574075 14.1046 1.28223C14.8127 1.99039 14.8127 3.13854 14.1046 3.8467L3.8467 14.1046C3.13854 14.8127 1.99039 14.8127 1.28223 14.1046Z" fill="white"/>
<path d="M1.28223 11.5401C1.99039 10.8319 3.13854 10.8319 3.8467 11.5401L14.1046 21.7979C14.8127 22.5061 14.8127 23.6543 14.1046 24.3624C13.3964 25.0706 12.2482 25.0706 11.5401 24.3624L1.28223 14.1046C0.574076 13.3964 0.574075 12.2483 1.28223 11.5401Z" fill="white"/>
</svg>
