<svg width="14" height="25" viewBox="0 0 14 25" fill="none" xmlns="http://www.w3.org/2000/svg">
<path d="M13.3624 11.5401C14.0706 12.2483 14.0706 13.3964 13.3624 14.1046L3.10456 24.3624C2.39641 25.0706 1.24825 25.0706 0.540097 24.3624C-0.16806 23.6543 -0.168059 22.5061 0.540099 21.798L10.798 11.5401C11.5061 10.8319 12.6543 10.8319 13.3624 11.5401Z" fill="white"/>
<path d="M13.3624 14.1046C12.6543 14.8127 11.5061 14.8127 10.798 14.1046L0.540099 3.8467C-0.168059 3.13854 -0.168059 1.99039 0.540098 1.28224C1.24826 0.574079 2.39641 0.574079 3.10456 1.28224L13.3624 11.5401C14.0706 12.2483 14.0706 13.3964 13.3624 14.1046Z" fill="white"/>
</svg>
